<svg xmlns="http://www.w3.org/2000/svg" width="33.333" height="33.333" viewBox="0 0 33.333 33.333" fill="none">
  <path d="M 16.667 0 C 25.872 0 33.333 7.462 33.333 16.667 C 33.333 25.872 25.872 33.333 16.667 33.333 C 13.721 33.338 10.828 32.559 8.283 31.075 L 0.007 33.333 L 2.26 25.053 C 0.775 22.508 -0.005 19.613 0 16.667 C 0 7.462 7.462 0 16.667 0 Z M 10.987 8.833 L 10.653 8.847 C 10.438 8.86 10.227 8.917 10.033 9.013 C 9.853 9.116 9.688 9.244 9.543 9.393 C 9.343 9.582 9.23 9.745 9.108 9.903 C 8.492 10.705 8.16 11.689 8.165 12.7 C 8.168 13.517 8.382 14.312 8.715 15.055 C 9.397 16.558 10.518 18.15 11.998 19.625 C 12.355 19.98 12.705 20.337 13.082 20.668 C 14.921 22.287 17.112 23.455 19.482 24.078 L 20.428 24.223 C 20.737 24.24 21.045 24.217 21.355 24.202 C 21.84 24.177 22.314 24.045 22.743 23.817 C 22.962 23.704 23.175 23.582 23.382 23.45 C 23.382 23.45 23.453 23.403 23.59 23.3 C 23.815 23.133 23.953 23.015 24.14 22.82 C 24.278 22.677 24.398 22.508 24.49 22.317 C 24.62 22.045 24.75 21.527 24.803 21.095 C 24.843 20.765 24.832 20.585 24.827 20.473 C 24.82 20.295 24.672 20.11 24.51 20.032 L 23.54 19.597 C 23.54 19.597 22.09 18.965 21.203 18.562 C 21.111 18.521 21.011 18.498 20.91 18.493 C 20.796 18.482 20.681 18.494 20.572 18.531 C 20.463 18.567 20.364 18.627 20.28 18.705 C 20.272 18.702 20.16 18.797 18.955 20.257 C 18.886 20.35 18.791 20.42 18.681 20.458 C 18.572 20.497 18.454 20.502 18.342 20.473 C 18.233 20.444 18.127 20.407 18.023 20.363 C 17.817 20.277 17.745 20.243 17.603 20.183 C 16.647 19.766 15.761 19.202 14.978 18.512 C 14.768 18.328 14.573 18.128 14.373 17.935 C 13.718 17.307 13.146 16.597 12.673 15.822 L 12.575 15.663 C 12.504 15.557 12.447 15.442 12.405 15.322 C 12.342 15.077 12.507 14.88 12.507 14.88 C 12.507 14.88 12.912 14.437 13.1 14.197 C 13.283 13.963 13.438 13.737 13.538 13.575 C 13.735 13.258 13.797 12.933 13.693 12.682 C 13.227 11.542 12.743 10.407 12.247 9.28 C 12.148 9.057 11.857 8.897 11.592 8.865 C 11.502 8.855 11.412 8.845 11.322 8.838 C 11.098 8.827 10.874 8.829 10.65 8.845 L 10.987 8.833 Z" fill="currentColor" fill-rule="nonzero"></path>
</svg>