<svg xmlns="http://www.w3.org/2000/svg" width="33.335" height="33.334" viewBox="0 0 33.335 33.334" fill="none">
  <path d="M 18.381 0 C 20.256 0.005 21.208 0.015 22.029 0.038 L 22.353 0.05 C 22.726 0.063 23.094 0.08 23.539 0.1 C 25.313 0.183 26.523 0.463 27.584 0.875 C 28.684 1.298 29.611 1.872 30.538 2.797 C 31.385 3.63 32.041 4.638 32.459 5.75 C 32.871 6.812 33.151 8.022 33.234 9.797 C 33.254 10.24 33.271 10.608 33.284 10.983 L 33.294 11.307 C 33.319 12.127 33.329 13.078 33.333 14.953 L 33.334 16.197 L 33.334 18.38 C 33.338 19.596 33.326 20.811 33.296 22.027 L 33.286 22.35 C 33.273 22.725 33.256 23.093 33.236 23.537 C 33.153 25.312 32.869 26.52 32.459 27.583 C 32.042 28.696 31.386 29.704 30.538 30.537 C 29.704 31.384 28.696 32.04 27.584 32.458 C 26.523 32.87 25.313 33.15 23.539 33.233 C 23.144 33.252 22.748 33.269 22.353 33.283 L 22.029 33.293 C 21.208 33.317 20.256 33.328 18.381 33.332 L 17.138 33.333 L 14.956 33.333 C 13.74 33.338 12.524 33.325 11.308 33.295 L 10.984 33.285 C 10.589 33.27 10.193 33.253 9.798 33.233 C 8.024 33.15 6.814 32.87 5.751 32.458 C 4.639 32.041 3.631 31.385 2.799 30.537 C 1.951 29.704 1.295 28.696 0.876 27.583 C 0.464 26.522 0.184 25.312 0.101 23.537 C 0.082 23.141 0.066 22.746 0.051 22.35 L 0.043 22.027 C 0.012 20.811 -0.002 19.596 0.001 18.38 L 0.001 14.953 C -0.004 13.738 0.009 12.522 0.038 11.307 L 0.049 10.983 C 0.063 10.608 0.079 10.24 0.099 9.797 C 0.183 8.022 0.463 6.813 0.874 5.75 C 1.293 4.637 1.95 3.628 2.801 2.797 C 3.633 1.949 4.64 1.293 5.751 0.875 C 6.814 0.463 8.023 0.183 9.798 0.1 C 10.241 0.08 10.611 0.063 10.984 0.05 L 11.308 0.04 C 12.523 0.01 13.739 -0.002 14.954 0.002 L 18.381 0 Z M 16.668 8.333 C 14.457 8.333 12.338 9.211 10.775 10.774 C 9.212 12.337 8.334 14.457 8.334 16.667 C 8.334 18.877 9.212 20.996 10.775 22.559 C 12.338 24.122 14.457 25 16.668 25 C 18.878 25 20.997 24.122 22.56 22.559 C 24.123 20.996 25.001 18.877 25.001 16.667 C 25.001 14.457 24.123 12.337 22.56 10.774 C 20.997 9.211 18.878 8.333 16.668 8.333 Z M 16.668 11.667 C 17.324 11.667 17.974 11.796 18.581 12.047 C 19.188 12.298 19.739 12.666 20.203 13.131 C 20.668 13.595 21.036 14.146 21.288 14.752 C 21.539 15.359 21.668 16.009 21.668 16.666 C 21.669 17.322 21.539 17.973 21.288 18.579 C 21.037 19.186 20.669 19.737 20.205 20.202 C 19.74 20.666 19.189 21.034 18.583 21.286 C 17.976 21.537 17.326 21.667 16.669 21.667 C 15.343 21.667 14.071 21.14 13.134 20.202 C 12.196 19.265 11.669 17.993 11.669 16.667 C 11.669 15.341 12.196 14.069 13.134 13.131 C 14.071 12.193 15.343 11.667 16.669 11.667 M 25.419 5.833 C 24.867 5.833 24.337 6.053 23.946 6.444 C 23.555 6.834 23.336 7.364 23.336 7.917 C 23.336 8.469 23.555 8.999 23.946 9.39 C 24.337 9.781 24.867 10 25.419 10 C 25.972 10 26.502 9.781 26.892 9.39 C 27.283 8.999 27.503 8.469 27.503 7.917 C 27.503 7.364 27.283 6.834 26.892 6.444 C 26.502 6.053 25.972 5.833 25.419 5.833 Z" fill="currentColor" fill-rule="nonzero"></path>
</svg>